<svg id="Capa_1" enable-background="new 0 0 512 512" height="512" viewBox="0 0 512 512" width="512" xmlns="http://www.w3.org/2000/svg"><g><path d="m409.332 0h-306.665c-29.324 0-53.095 23.772-53.095 53.096v88.702h412.856v-88.702c0-29.324-23.772-53.096-53.096-53.096z" fill="#a2ddfd"/><path d="m409.332 0h-306.665c-29.324 0-53.095 23.772-53.095 53.096v88.702h412.856v-88.702c0-29.324-23.772-53.096-53.096-53.096z" fill="#a2ddfd"/><path d="m180.469 0h-77.802c-29.323 0-53.095 23.772-53.095 53.096v88.702h155.185c-23.34-38.173-27.811-93.478-24.288-141.798z" fill="#7acdf9"/><path d="m395.07 69.661h-61.094c-4.142 0-7.5-3.358-7.5-7.5s3.358-7.5 7.5-7.5h61.094c4.142 0 7.5 3.358 7.5 7.5s-3.358 7.5-7.5 7.5z" fill="#4e5660"/><circle cx="132.423" cy="62.161" fill="#6a95d6" r="27.397"/><circle cx="227.546" cy="62.161" fill="#fff" r="27.397"/><path d="m456.304 512h-400.608c-30.76 0-55.696-24.936-55.696-55.696v-276.286c0-30.76 24.936-55.696 55.696-55.696h400.608c30.76 0 55.696 24.936 55.696 55.696v276.286c0 30.76-24.936 55.696-55.696 55.696z" fill="#fbf1cf"/><path d="m55.696 124.322c-30.76 0-55.696 24.936-55.696 55.696v276.286c0 30.76 24.936 55.696 55.696 55.696h176.706c-129.376-69.243-137.432-254.397-125.787-387.678z" fill="#f5e2a2"/><path d="m1.787 470.34c6.222 23.965 27.998 41.66 53.909 41.66h400.608c25.911 0 47.687-17.695 53.909-41.66z" fill="#8daee1"/><path d="m1.787 470.34c6.222 23.965 27.998 41.66 53.909 41.66h400.608c25.911 0 47.687-17.695 53.909-41.66z" fill="#8daee1"/><path d="m55.696 512h176.706c-20.784-11.124-38.424-25.249-53.367-41.66h-177.248c6.222 23.965 27.998 41.66 53.909 41.66z" fill="#6a95d6"/><path d="m422.443 269.445h-60.728v97.432h60.728c11.62 0 21.04-9.42 21.04-21.04v-55.352c0-11.62-9.42-21.04-21.04-21.04z" fill="#8daee1"/><circle cx="256" cy="318.161" fill="#4e5660" r="152.179"/><ellipse cx="256" cy="318.161" fill="#a2ddfd" rx="114.331" ry="114.331" transform="matrix(.707 -.707 .707 .707 -149.993 274.207)"/><path d="m366.984 290.62c-12.327-49.838-57.337-86.79-110.984-86.79-52.829 0-97.28 35.833-110.396 84.518 95.389-21.42 142.323 61.998 221.38 2.272z" fill="#6a95d6"/><path d="m350.964 254.478c-39.663-.948-77.447 23.507-90.381 48.782 34.229 11.078 66.152 17.774 106.402-12.636-3.235-13.08-8.717-25.275-16.021-36.146z" fill="#7acdf9"/><g><g fill="#fff"><path d="m215.601 381.278c0 10.39-10.576 18.812-23.622 18.812s-23.623-8.422-23.623-18.812c0-10.389 10.576-18.812 23.623-18.812 13.046 0 23.622 8.423 23.622 18.812z"/><path d="m296.399 381.278c0 10.39 10.576 18.812 23.622 18.812 13.047 0 23.623-8.422 23.623-18.812 0-10.389-10.576-18.812-23.623-18.812-13.046 0-23.622 8.423-23.622 18.812z"/></g><g fill="#4e5660"><path d="m205.746 370.669c-4.142 0-7.5-3.358-7.5-7.5v-9.657c0-4.142 3.358-7.5 7.5-7.5s7.5 3.358 7.5 7.5v9.657c0 4.142-3.358 7.5-7.5 7.5z"/><path d="m306.254 370.669c-4.142 0-7.5-3.358-7.5-7.5v-9.657c0-4.142 3.358-7.5 7.5-7.5s7.5 3.358 7.5 7.5v9.657c0 4.142-3.358 7.5-7.5 7.5z"/><path d="m256 376.418c-7.246 0-14.136-3.138-18.903-8.608-2.721-3.123-2.396-7.86.727-10.582 3.123-2.721 7.86-2.396 10.582.727 1.918 2.201 4.686 3.463 7.595 3.463s5.677-1.262 7.596-3.463c2.721-3.124 7.46-3.448 10.581-.726 3.123 2.722 3.448 7.459.726 10.582-4.769 5.469-11.658 8.607-18.904 8.607z"/></g></g></g></svg>