<?xml version="1.0"?>
<svg xmlns="http://www.w3.org/2000/svg" id="Layer_1" enable-background="new 0 0 512 512" height="512px" viewBox="0 0 512 512" width="512px"><g><path d="m410.13 0h-308.26c-26.18 0-47.47 21.29-47.47 47.47v65.6h403.2v-65.6c0-26.18-21.29-47.47-47.47-47.47zm-281.06 81.6c-13.82 0-25.07-11.25-25.07-25.07s11.25-25.06 25.07-25.06 25.06 11.24 25.06 25.06-11.24 25.07-25.06 25.07zm90.66 0c-13.82 0-25.06-11.25-25.06-25.07s11.24-25.06 25.06-25.06c13.83 0 25.07 11.24 25.07 25.06s-11.24 25.07-25.07 25.07zm172.27-9.07h-90.67c-8.83 0-16-7.16-16-16 0-8.83 7.17-16 16-16h90.67c8.84 0 16 7.17 16 16 0 8.84-7.16 16-16 16z" data-original="#000000" class="active-path" data-old_color="#000000" fill="#FFFFFF"/><path d="m54.4 145.07v350.93c0 8.837 7.163 16 16 16h371.2c8.837 0 16-7.163 16-16v-350.93zm201.6 317.33c-73.81 0-133.87-60.05-133.87-133.87 0-73.81 60.06-133.86 133.87-133.86s133.87 60.05 133.87 133.86c0 73.82-60.06 133.87-133.87 133.87z" data-original="#000000" class="active-path" data-old_color="#000000" fill="#FFFFFF"/><path d="m355.7 349.46c-9.68 46.16-50.7 80.94-99.7 80.94s-90.02-34.78-99.7-80.94c9.051 5.294 19.099 13.21 40.76 13.21 19.27 0 29.57-6.35 37.85-11.44 6.55-4.03 10.88-6.7 21.08-6.7 10.21 0 14.54 2.67 21.09 6.7 8.28 5.09 18.59 11.44 37.85 11.44 21.53 0 31.576-7.832 40.77-13.21z" data-original="#000000" class="active-path" data-old_color="#000000" fill="#FFFFFF"/><path d="m356.89 314.49c-20.79 5.174-23.086 16.18-41.96 16.18-10.21 0-14.53-2.67-21.08-6.7-8.29-5.09-18.6-11.44-37.86-11.44s-29.57 6.35-37.85 11.44c-6.55 4.03-10.87 6.7-21.08 6.7-18.782 0-21.265-11.032-41.95-16.18 6.86-49.55 49.48-87.82 100.89-87.82 51.4 0 94.03 38.27 100.89 87.82z" data-original="#000000" class="active-path" data-old_color="#000000" fill="#FFFFFF"/></g> </svg>
