<?xml version="1.0" encoding="utf-8"?>
<!-- Generator: Adobe Illustrator 24.0.2, SVG Export Plug-In . SVG Version: 6.00 Build 0)  -->
<svg version="1.1" id="a80234ba-f3f6-42a2-9225-8d803f7486aa"
	 xmlns="http://www.w3.org/2000/svg" xmlns:xlink="http://www.w3.org/1999/xlink" x="0px" y="0px" viewBox="0 0 877 639.5"
	 style="enable-background:new 0 0 877 639.5;" xml:space="preserve">
<style type="text/css">
	.st0{fill:#E6E6E6;}
	.st1{fill:#FFFFFF;}
	.st2{fill:#00B0FF;}
	.st3{opacity:0.1;enable-background:new    ;}
	.st4{opacity:5.000000e-02;enable-background:new    ;}
	.st5{fill:#FDE672;}
	.st6{fill:#FFB8B8;}
	.st7{fill:#2F2E41;}
</style>
<rect x="0.3" y="0.4" class="st0" width="644.7" height="412.9"/>
<rect x="18.7" y="52.2" class="st1" width="607.9" height="336.7"/>
<rect y="0" class="st2" width="644.7" height="27.4"/>
<circle class="st1" cx="20.4" cy="14" r="5.1"/>
<circle class="st1" cx="39.6" cy="14" r="5.1"/>
<circle class="st1" cx="58.9" cy="14" r="5.1"/>
<rect x="93.5" y="79.8" class="st0" width="118.9" height="129"/>
<rect x="263.2" y="79.8" class="st0" width="118.9" height="129"/>
<rect x="432.9" y="79.8" class="st0" width="118.9" height="129"/>
<rect x="93.5" y="232.2" class="st0" width="118.9" height="129"/>
<rect x="263.2" y="232.2" class="st0" width="118.9" height="129"/>
<rect x="432.9" y="232.2" class="st0" width="118.9" height="129"/>
<path class="st1" d="M291.9,265.3l21.7-8.6l2.5,42.9c0,0,4.5,13.1,3,18.2c0,0,1,8.6-1.5,9.1s-9.6,1.5-10.1,1s-0.5-2-0.5-2
	s-5.1,3.5-5.6,7.6c0,0-21.2,6.6-21.7,0.5s10.6-11.1,10.6-11.1l8.6-13.1L291.9,265.3z"/>
<path class="st1" d="M337.9,265.3l21.7-8.6l2.5,42.9c0,0,4.5,13.1,3,18.2c0,0,1,8.6-1.5,9.1s-9.6,1.5-10.1,1s-0.5-2-0.5-2
	s-5.1,3.5-5.6,7.6c0,0-21.2,6.6-21.7,0.5s10.6-11.1,10.6-11.1l8.6-13.1L337.9,265.3z"/>
<path class="st2" d="M340,99.5c0,0-4.6,12.9,0.7,18.8l-4.5,15.4c0,0,15.9,47.6,11.3,54.3c0,0-16.9,8.5-50.8-3l13.8-53.4l-2-22.5
	l2.7-10.6l6-0.6c0,0-3.6,13.6,3,15.7s13.1-15.4,13.1-15.4L340,99.5z"/>
<path class="st1" d="M126.4,182.9l5.8,2.4l27.9-36.6l8.8,43l5.8-1.1c3.7-37.1,6.8-74.9,3.1-92.7L156.1,97l-9.8,31.3l-4.8,21.2
	L126.4,182.9z"/>
<path class="st1" d="M480.7,97.6c0,0-8,11.1-7.6,15.5s5.4,77.3,5.4,77.3l11.9,0.6l-3.5-52.5l2.9-14.2l7.2,66.1l14.6,0.4l-13-85.7
	l-2.5-7.6L480.7,97.6z"/>
<path class="st2" d="M525.7,276c-2.1-2.5-5.8-3.9-9.2-4.7c0.1-0.3-10.6-2.5-10.8-2.1l-4-3.2l-12.4,6.4l-7-4.7l-3.2,1.2
	c0.1-0.6-10.1,1.2-10.1,1.2c-1.9,0.1-4.4,0.2-7.2,0.4c-9.7,0.7-10.5,26-10.5,26c4.5-1.8,9.3-2.8,14.1-3l2.6,30.2
	c13.6-1.2,27.8,0.2,42.5,3.5l6.9-23.7l16.1-6.3C533.4,297.3,530.7,282,525.7,276z"/>
<path class="st1" d="M180.4,261.6c-1.7-2.1-4.7-3.2-7.6-3.8c0.1-0.3-8.7-2.1-8.9-1.7l-3.3-2.7l-10.2,5.3l-5.7-3.9l-2.7,0.9
	c0.1-0.5-8.3,1-8.3,1c-1.6,0.1-3.7,0.2-5.9,0.3c-8,0.6-8.7,21.4-8.7,21.4c3.7-1.5,7.6-2.3,11.6-2.4l2.2,60.9c11.2-1,22.9,0.2,35,2.9
	l5.7-55.6l13.3-5.2C186.8,279.1,184.6,266.6,180.4,261.6z"/>
<polygon class="st0" points="613,612.6 532.6,629.1 530.7,628.9 460.1,621.8 460.1,532.2 546.6,517.6 609.3,524.9 609.4,525.3 
	609.4,525.5 "/>
<polygon class="st3" points="613,612.6 532.6,629.1 530.7,628.9 530.7,537.1 609.4,525.3 "/>
<polygon class="st4" points="609.4,525.5 609.3,525.5 530.7,537.1 460.1,532.2 546.6,517.6 609.3,524.9 609.4,525.3 "/>
<rect x="482" y="552" transform="matrix(6.512490e-02 -0.9979 0.9979 6.512490e-02 -113.9373 1031.4076)" class="st1" width="23" height="49"/>
<rect x="489.5" y="563.5" transform="matrix(6.512490e-02 -0.9979 0.9979 6.512490e-02 -113.9373 1031.4076)" class="st5" width="8" height="26"/>
<polygon class="st5" points="722,612.6 641.6,629.1 639.7,628.9 569.1,621.8 569.1,532.2 655.6,517.6 718.3,524.9 718.4,525.3 
	718.4,525.5 "/>
<polygon class="st3" points="722,612.6 641.6,629.1 639.7,628.9 639.7,537.1 718.4,525.3 "/>
<polygon class="st4" points="718.4,525.5 718.3,525.5 639.7,537.1 569.1,532.2 655.6,517.6 718.3,524.9 718.4,525.3 "/>
<rect x="591" y="552" transform="matrix(6.512490e-02 -0.9979 0.9979 6.512490e-02 -12.0334 1140.1738)" class="st1" width="23" height="49"/>
<rect x="598.5" y="563.5" transform="matrix(6.512490e-02 -0.9979 0.9979 6.512490e-02 -12.0334 1140.1738)" class="st5" width="8" height="26"/>
<path class="st6" d="M780.2,165.6c0,0,14.2,36.7-11.8,36.7s40.2,36.7,66.2,15.4s10.6-22.5,10.6-22.5s-34.3,3.5-33.1-27.2
	L780.2,165.6z"/>
<circle class="st7" cx="798.7" cy="134.8" r="41.8"/>
<path class="st7" d="M773.1,318.2L728.2,434c0,0-22.5,35.5-14.2,70.9s31,100,31,100s17.2,4.4,16-11s0.7-89.9-17-110l71.7-81.9
	l2.4,93.4c0,0-4.7,42.6-3.5,61.5s3.5,50.8,3.5,50.8l14.2-2.4c0,0,19.1-87.1,16.8-115.5c0,0,43.9-137.9-1-171L773.1,318.2z"/>
<path class="st7" d="M749.9,604.8c0,0-5.8-1.5-6.5,3.8s-12.8,28.9-0.1,30.1s17.1-10.7,19.2-19.1s2.9-8.8,4.7-10.4s6-10.4,0.7-11
	s-8-5.9-8-5.9S758.3,607,749.9,604.8z"/>
<path class="st7" d="M827.3,600.7c0,0-10.7-1.5-10,2.3s-1.5,19.9,0,21.5s4.6,4.6,4.6,6.9s0.8,10,13.8,7.7s10-13.8,9.2-15.3
	s-10-9.2-9.2-13.8S831.9,597.7,827.3,600.7z"/>
<circle class="st6" cx="799.2" cy="152.3" r="29"/>
<path class="st5" d="M826.9,192.2c0,0,10.1,20-20.3,20.6c-9.4,0.2-20.5-6.6-25.1-14.8c-2.7-4.8-3.4,1.8-7.8,1.3
	c-8.3-0.9-17.1,2.5-25.1,6.7c-2.1,1.1-3.1,3.6-2.4,5.9c6,19.9,23.2,115.9,25.8,121.1c6.8,13.3,80-9,80-9c1-36.3-12.2-87.1,11-124
	C852.7,192.3,839.5,189.4,826.9,192.2z"/>
<polygon class="st7" points="826.3,130 805.1,118.9 775.8,123.4 769.7,150.2 784.8,149.6 789,139.8 789,149.5 796,149.2 800,133.5 
	802.5,150.2 827.3,149.7 "/>
<circle class="st7" cx="800.9" cy="87.1" r="16.9"/>
<path class="st7" d="M779.6,82c0-8.3,6.1-15.4,14.3-16.7c-9.2-1.4-17.8,4.9-19.2,14.1s4.9,17.8,14.1,19.2c1.7,0.3,3.4,0.3,5.1,0
	C785.7,97.4,779.6,90.3,779.6,82z"/>
<polygon class="st0" points="877,483.6 796.6,500.1 794.7,499.9 724.1,492.8 724.1,403.2 810.6,388.6 873.3,395.9 873.4,396.3 
	873.4,396.5 "/>
<polygon class="st3" points="877,483.6 796.6,500.1 794.7,499.9 794.7,408.1 873.4,396.3 "/>
<polygon class="st4" points="873.4,396.5 873.3,396.5 794.7,408.1 724.1,403.2 810.6,388.6 873.3,395.9 873.4,396.3 "/>
<rect x="746" y="423" transform="matrix(6.512490e-02 -0.9979 0.9979 6.512490e-02 261.5991 1174.2395)" class="st1" width="23" height="49"/>
<rect x="753.5" y="434.5" transform="matrix(6.512490e-02 -0.9979 0.9979 6.512490e-02 261.5991 1174.2395)" class="st5" width="8" height="26"/>
<path class="st6" d="M751.7,380.2c0,0-29.6,23.6-16.6,31.9s28.4-31.9,28.4-31.9H751.7z"/>
<path class="st5" d="M753,205c-1.5-1.7-20.9,8.1-18,21l1.3,89.1c0,0-7.1,73.3,10.6,73.3s15.6,2.5,18-3.4s3-56,3-56L753,205z"/>
<path class="st6" d="M844.5,372.2c0,0,15.4,40.2,28.4,31.9s-16.6-31.9-16.6-31.9H844.5z"/>
<path class="st5" d="M848,322c0,0-7.4,49.1-5,55s0.3,3.4,18,3.4s10.6-73.3,10.6-73.3L873,218c2.9-12.9-16.5-22.7-18-21l-17,58
	L848,322z"/>
</svg>
