<?xml version="1.0" encoding="utf-8"?>
<!-- Generator: Adobe Illustrator 24.0.2, SVG Export Plug-In . SVG Version: 6.00 Build 0)  -->
<svg version="1.1" id="fe80fb2b-bcaf-407e-919b-306adc32f78b"
	 xmlns="http://www.w3.org/2000/svg" xmlns:xlink="http://www.w3.org/1999/xlink" x="0px" y="0px" viewBox="0 0 1032 741.8"
	 style="enable-background:new 0 0 1032 741.8;" xml:space="preserve">
<style type="text/css">
	.st0{fill:none;stroke:#3F3D56;stroke-miterlimit:10;}
	.st1{fill:#F2F2F2;}
	.st2{opacity:0.3;fill:#00B0FF;enable-background:new    ;}
	.st3{fill:#00B0FF;}
	.st4{fill:#2F2E41;}
	.st5{fill:#FFB8B8;}
	.st6{fill:#A0616A;}
	.st7{opacity:0.81;fill:#FFB8B8;enable-background:new    ;}
	.st8{fill:#3F3D56;}
</style>
<title>profile</title>
<line class="st0" x1="0" y1="741.3" x2="166" y2="741.3"/>
<path class="st1" d="M262.4,127.8h698.2c10.7,0,19.4,8.7,19.4,19.4v460.2c0,10.7-8.7,19.4-19.4,19.4H262.4
	c-10.7,0-19.4-8.7-19.4-19.4V147.2C243,136.4,251.7,127.8,262.4,127.8z"/>
<path class="st0" d="M239.9,96.3h698.2c10.7,0,19.4,8.7,19.4,19.4v460.2c0,10.7-8.7,19.4-19.4,19.4H239.9
	c-10.7,0-19.4-8.7-19.4-19.4V115.7C220.5,104.9,229.2,96.3,239.9,96.3z"/>
<line class="st0" x1="220.5" y1="144.1" x2="957.5" y2="144.1"/>
<path class="st2" d="M668.1,256.3h186.8c3.9,0,7.1,3.2,7.1,7.1v16.8c0,3.9-3.2,7.1-7.1,7.1H668.1c-3.9,0-7.1-3.2-7.1-7.1v-16.8
	C661,259.4,664.2,256.3,668.1,256.3z"/>
<path class="st2" d="M629.6,342.3h263.8c3.9,0,7.1,3.2,7.1,7.1v10.8c0,3.9-3.2,7.1-7.1,7.1H629.6c-3.9,0-7.1-3.2-7.1-7.1v-10.8
	C622.5,345.4,625.7,342.3,629.6,342.3z"/>
<path class="st2" d="M629.6,410.3h263.8c3.9,0,7.1,3.2,7.1,7.1v10.8c0,3.9-3.2,7.1-7.1,7.1H629.6c-3.9,0-7.1-3.2-7.1-7.1v-10.8
	C622.5,413.4,625.7,410.3,629.6,410.3z"/>
<path class="st2" d="M629.6,478.3h263.8c3.9,0,7.1,3.2,7.1,7.1v10.8c0,3.9-3.2,7.1-7.1,7.1H629.6c-3.9,0-7.1-3.2-7.1-7.1v-10.8
	C622.5,481.4,625.7,478.3,629.6,478.3z"/>
<path class="st0" d="M678.1,246.3h186.8c3.9,0,7.1,3.2,7.1,7.1v16.8c0,3.9-3.2,7.1-7.1,7.1H678.1c-3.9,0-7.1-3.2-7.1-7.1v-16.8
	C671,249.4,674.2,246.3,678.1,246.3z"/>
<path class="st0" d="M639.6,332.3h263.8c3.9,0,7.1,3.2,7.1,7.1v10.8c0,3.9-3.2,7.1-7.1,7.1H639.6c-3.9,0-7.1-3.2-7.1-7.1v-10.8
	C632.5,335.4,635.7,332.3,639.6,332.3z"/>
<path class="st0" d="M639.6,400.3h263.8c3.9,0,7.1,3.2,7.1,7.1v10.8c0,3.9-3.2,7.1-7.1,7.1H639.6c-3.9,0-7.1-3.2-7.1-7.1v-10.8
	C632.5,403.4,635.7,400.3,639.6,400.3z"/>
<path class="st0" d="M639.6,468.3h263.8c3.9,0,7.1,3.2,7.1,7.1v10.8c0,3.9-3.2,7.1-7.1,7.1H639.6c-3.9,0-7.1-3.2-7.1-7.1v-10.8
	C632.5,471.4,635.7,468.3,639.6,468.3z"/>
<circle class="st2" cx="276.5" cy="126.3" r="15"/>
<circle class="st2" cx="318.5" cy="126.3" r="15"/>
<circle class="st2" cx="360.5" cy="126.3" r="15"/>
<circle class="st0" cx="282.5" cy="120.3" r="15"/>
<circle class="st0" cx="324.5" cy="120.3" r="15"/>
<circle class="st0" cx="366.5" cy="120.3" r="15"/>
<path class="st3" d="M453.4,574.3c-2.5-11.6-3.2-27.4-2.3-38.4c0,0-12.7-55.8-22.7-61l0,0c-0.2,0.2-5,6.6-5.6,26.2
	c-0.6,20-7.7,33.1-7.7,33.1s2.3,24.9,1,40L453.4,574.3z"/>
<path class="st3" d="M545.7,219.3H315.3c-13.1,0-23.8,10.6-23.8,23.8c0,0,0,0,0,0v307.5c0,13.1,10.6,23.8,23.8,23.8h0h80.9
	c-2.7-11.2-6.1-28.7-2.7-40.9l0,0l0,0c0.2-0.6,0.3-1.1,0.5-1.7c2.3-7.9,3.1-16.2,2.3-24.4c1.5-7,1.5-14.2,0-21.2
	c-2.5-11.7-4.2-23.1-4.2-23.1s-1.4-15.4-0.2-24.8c0-0.2,0.1-0.4,0.1-0.6c-0.4-0.1-0.7-0.2-0.7-0.2s3.5-16,4.8-26.2
	c0.3-2.4,0.7-5.5,1.1-8.7c-1.2-0.2-2.3-0.5-3.4-0.9c-11.2-4-14.8-39.8-14.8-39.8v-11.3c0,0-3.7-17.4,9.4-25.1
	c12.6-7.4,17.7-9.4,18-9.6c0.1-0.1,0.2-0.1,0.3-0.2c1.4-1.1,2.6-2.6,3.3-4.2c0-0.3,0-0.6,0-0.9c-0.2-4.1-3-7.8-5.7-11
	c-2.3-2.8-4.6-5.5-6.9-8.3c-0.8-0.8-1.4-1.8-1.8-2.9c-0.1-0.6-0.2-1.2-0.2-1.8c0-0.2,0-0.4,0-0.7c0-2.1,0.1-4.1,0.2-6.2
	c0.1-1.8,0.5-4.1,2.3-4.4c0.9-0.2,2.1,0.1,2.6-0.7c0.2-0.3,0.2-0.7,0.1-1.1c0,0,0,0.1,0,0.1c0,0,0-0.1,0-0.1
	c-0.4-1.4-0.6-2.9-0.7-4.4c0-0.7,0.1-1.3,0.3-2c1-3,4.5-4.2,7.6-4.8c3.1-0.6,6.6-1,8.5-3.5c0.5-0.8,1.1-1.6,1.7-2.4
	c0.9-0.8,2-1.4,3.2-1.6c3.8-1,7.9-0.6,11.5,1c1.5,0.7,3,1.6,4.6,1.5c1.7-0.1,3.2-1.3,4.8-1.6c2.7-0.5,5.3,1.6,6.7,4
	c0.9,1.5,1.3,3.3,1.2,5c0,1.7-0.6,3.4-1.8,4.7c-1.2,1.2-2.9,2.1-3.4,3.7c-0.2,0.7-0.2,1.4-0.3,2.1c0,0.1-0.1,0.2-0.1,0.2
	c0,0,0.1,0.1,0.1,0.1c7.1,9.3,5.3,22.7-4.1,29.7c-1.9,1.4-4,2.5-6.3,3.3c0,0.2,0,0.4,0,0.6c-0.1,2.7,0.9,5.2,2.8,7.1l18.5,7.6
	c0,0,11.2-1.4,15.2,15.3c0.6,2.8,0.9,5.6,0.7,8.5c-0.1,2.5,0.2,6.9,3.1,12.7c4.6,9.2,3.5,30.2-5.8,32.3c-8.9,2-12.3,1.1-12.7,1.1
	l0,0.4c0.1,3.9,1.6,38,6.6,42.1c1.4,1.1,1.1,1.9,0,2.4l0,0c0,0,0,0.2,0,0.6c0.2,2.5,0.9,12,4.4,17.4c4,6.2,3.5,42.3,3.5,42.3
	l2.7,21.2c0,0-1.7,13.1,0,15.4c0.9,1.3,2.1,21.4,2.9,38.6h69.5c13.1,0,23.8-10.6,23.8-23.8V243C569.5,229.9,558.9,219.3,545.7,219.3
	L545.7,219.3z"/>
<path class="st0" d="M291.3,192.3h230.5c13.1,0,23.8,10.6,23.8,23.8v307.5c0,13.1-10.6,23.8-23.8,23.8H291.3
	c-13.1,0-23.8-10.6-23.8-23.8V216C267.5,202.9,278.1,192.3,291.3,192.3z"/>
<path class="st4" d="M100.8,321.6c0,0-9.3-2.8-11.3,0.2s2.7,24.7,2.7,24.7l20.5,1.2l-7.2-18.1L100.8,321.6z"/>
<path class="st5" d="M28.9,500.2c0,0,18.7,41,4.3,39.8s-20-39.8-20-39.8H28.9z"/>
<path class="st5" d="M151.2,495.9c0,0-8.2,44.3,5.5,39.6s9.8-43.4,9.8-43.4L151.2,495.9z"/>
<path class="st6" d="M96.8,311.3c0,0-0.2,20.6,7.7,21.7s-4.5,12-4.5,12l-14.2,2.8l-20.4-1.5l-9-11.6c0,0,15.9-7.5,9-30.9L96.8,311.3
	z"/>
<path class="st7" d="M96.8,311.3c0,0-0.2,20.6,7.7,21.7s-4.5,12-4.5,12l-14.2,2.8l-20.4-1.5l-9-11.6c0,0,15.9-7.5,9-30.9L96.8,311.3
	z"/>
<path class="st4" d="M133.4,485.8c0,0,10.1,21.7,2.1,89.8c0,0,2.4,24.1,0.4,28.6S118.1,670,118.1,670s-20.4,4.5-23.2-9
	c0,0,2.8-19.3,2.6-22.3s4.5-35.9,4.5-35.9l-9.7-63.6L85,596.5c0,0,0,16.5-2.4,20.2s0,77.1,0,77.1s6.7,11.2-3.4,11.4
	s-19.1-0.2-20-7.3s-1.3-14.2-3.4-18.5s-4.9-53.5-4.3-70.7S37.3,503.2,42.1,494S133.4,485.8,133.4,485.8z"/>
<circle class="st5" cx="85.9" cy="293.3" r="25.8"/>
<path class="st1" d="M60.1,335.2c0,0,15.7,11.6,38.5,2.4c0,0,7.5-3.7,6.9-9.2s15.7,44.9,15.7,44.9l16.5,87.9l-0.9,35.9
	c0,0-7.3-3.7-30.1,4.5s-60-9.2-60-9.2l1.3-92.2l1.3-53.7l3.4-11.8C52.8,334.5,54.5,331.3,60.1,335.2z"/>
<path class="st4" d="M97.6,320.8c0,0,3.8-0.6,7.4,5.2s12.2,9.5,12.2,9.5s20.8,1.3,23.9,12.5s10.5,26.4,14.2,54.6s11,73.1,12,76.7
	s-1.5,14.8,1.5,18.3s-21.3,3.4-21.3,3.4s-2.1-17.6-3.7-17.6s-1.1,11.8,0.4,20.4s-11,0-11,0s-9.7-39.3-18.9-74.8s-14.6-55-12.9-63
	s6.4-30.7,3-32.9S97.6,320.8,97.6,320.8z"/>
<path class="st4" d="M66.6,320.7c0,0-5.6,3.1-19.8,13.2s-23.9,17.8-23.9,17.8s-5.6,4.3-9,29.9S2.7,473.4,5.7,481.7s4.1,13.3,3,18.3
	s22.6,4.7,23,3.7s-0.6-20.6,0.4-21.1s6.9,11.6,8,21.7s13.5,18,16.3,18s17.2-58.2,17.4-98s-4.7-73.3-8.4-78S66.6,320.7,66.6,320.7z"
	/>
<path class="st8" d="M104.4,671.9c0,0,1.7-4.7,7.7-3.2s10.1-3.9,10.1-3.9s3.2-0.4,1.1,3.7s-3.9,6.9-3.9,6.9s12.9,29.4,4.5,36.5
	s-18.1,2.8-18.1,2.8s-9.5-6.7-9-24.3c0,0-0.4-5.6-5.6-14.6s-9-22.8-2.8-25.4s7.8-2.7,7.8-2.7s-2.9,13.3,4.6,18L104.4,671.9z"/>
<path class="st8" d="M64.4,705.2c0,0-5.2-9.7,3.4-10.7s17.8-1.7,17.4,2.8s-1.5,11.4-1.5,11.4l1.5,4.9c0,0,0.4,12.2,1.9,13.8
	s9.7,14.4-7.7,14.4s-22.6-1.9-21.1-6s1.9-24.3,1.9-24.3L64.4,705.2z"/>
<path class="st4" d="M77.7,272.7c0,0,12,3.2,18.3,4.5s5.6-2.4,5.6-2.4s8.2,1.1,7.7,0.2s3.4-5.4-1.1-10.5s-3.2-9-3.2-9h-3.9l-1.1-1.5
	h-6c0,0-4.5-1.7-16.3,0s-27.9,2.1-29.2,9.2s-8,15.9-5.6,20s15.9,20.8,17.2,27.9s7.3,8.7,7.1,4.2s-6.2-19.9-1.1-20.6
	S80.1,281,77.7,272.7z"/>
<path class="st0" d="M934.9,7.5c-8.7,0.5-16.4,5.9-19.8,13.9c-5,12,1.4,26,11,34.8s21.9,13.7,33,20.3c15,8.8,28.5,21,36,36.7
	s8.3,35.2-0.5,50.1c-8.2,13.9-23.1,22.3-37.3,29.9"/>
<ellipse class="st3" cx="947.5" cy="8.5" rx="17.5" ry="8.5"/>
<ellipse class="st3" cx="961.5" cy="64.5" rx="17.5" ry="8.5"/>
<ellipse class="st3" cx="929.5" cy="73.5" rx="17.5" ry="8.5"/>
<ellipse class="st3" cx="979.5" cy="120.5" rx="17.5" ry="8.5"/>
<ellipse class="st3" cx="1014.5" cy="120.5" rx="17.5" ry="8.5"/>
</svg>
